# Blender v2.93.0 OBJ File: 'casaHC.blend'
# www.blender.org
mtllib casaHC.mtl
o Cube_Cube.002
v 0.105091 2.338590 12.938572
v 0.105091 3.307196 12.938572
v 0.105091 2.338590 4.459570
v 0.105091 3.307196 4.459570
vt 0.995153 0.001828
vt 0.997673 0.958635
vt 0.004577 0.950700
vt 0.002057 -0.006108
vn 1.0000 0.0000 0.0000
usemtl Material.002
s off
f 3/1/1 4/2/1 2/3/1 1/4/1
o Cube.001_Cube.005
v 0.124257 2.274169 -3.012783
v 0.124257 3.242775 -3.012783
v 0.124257 2.274169 -11.491785
v 0.124257 3.242775 -11.491785
vt 0.995153 0.001828
vt 0.997673 0.958635
vt 0.004577 0.950700
vt 0.002057 -0.006108
vn 1.0000 0.0000 0.0000
usemtl Material.002
s off
f 7/5/2 8/6/2 6/7/2 5/8/2
o Puerta_Cube.006
v 0.113445 -0.276517 4.438557
v 0.113445 3.300742 4.438557
v 0.113445 -0.276517 -3.025979
v 0.113445 3.300742 -3.025979
vt 0.934184 0.020894
vt 0.997353 0.993481
vt 0.002648 0.996024
vt -0.060521 0.023436
vn 1.0000 0.0000 0.0000
usemtl Material.003
s off
f 11/9/3 12/10/3 10/11/3 9/12/3
o barda.004_Cube.009
v 0.225084 -0.323209 -3.051748
v 0.226341 0.021328 -3.048615
v 0.229069 -0.329978 -11.525757
v 0.243629 0.008847 -11.520246
v 0.305418 -0.266912 -3.115961
v 0.315725 0.034519 -3.098221
v 0.335242 -0.313881 -11.516632
v 0.336406 -0.002547 -11.508467
vt 1.296323 0.009426
vt 1.296323 0.437687
vt 1.150384 0.437687
vt 1.150384 0.009426
vt 1.001759 0.154715
vt 1.004445 0.009426
vt -0.004514 0.145887
vt -0.001829 0.000598
vt -0.147768 0.428859
vt -0.147768 0.000598
vt 0.144111 -0.427663
vt -0.001829 -0.427663
vt 0.144111 0.857119
vt -0.001828 0.857119
vn -0.9997 0.0232 -0.0013
vn 0.1040 0.0184 -0.9944
vn 0.9998 -0.0188 0.0031
vn 0.5669 -0.0367 0.8229
vn 0.3628 -0.9319 0.0037
vn -0.0105 0.9999 -0.0030
usemtl Material.006
s off
f 13/13/4 14/14/4 16/15/4 15/16/4
f 15/16/5 16/15/5 20/17/5 19/18/5
f 19/18/6 20/17/6 18/19/6 17/20/6
f 17/20/7 18/19/7 14/21/7 13/22/7
f 15/23/8 19/18/8 17/20/8 13/24/8
f 20/17/9 16/25/9 14/26/9 18/19/9
o barda.003_Cube.008
v 0.115084 -0.363209 -3.051748
v 0.116341 -0.018672 -3.048615
v 0.119069 -0.369978 -11.525757
v 0.133629 -0.031153 -11.520246
v 0.195418 -0.306912 -3.115961
v 0.205725 -0.005481 -3.098221
v 0.225242 -0.353881 -11.516632
v 0.226406 -0.042547 -11.508467
vt 1.296323 0.009426
vt 1.296323 0.437687
vt 1.150384 0.437687
vt 1.150384 0.009426
vt 1.001759 0.154715
vt 1.004445 0.009426
vt -0.004514 0.145887
vt -0.001829 0.000598
vt -0.147768 0.428859
vt -0.147768 0.000598
vt 0.144111 -0.427663
vt -0.001829 -0.427663
vt 0.144111 0.857119
vt -0.001828 0.857119
vn -0.9997 0.0232 -0.0013
vn 0.1041 0.0184 -0.9944
vn 0.9998 -0.0188 0.0031
vn 0.5669 -0.0367 0.8229
vn 0.3628 -0.9319 0.0037
vn -0.0105 0.9999 -0.0030
usemtl Material.005
s off
f 21/27/10 22/28/10 24/29/10 23/30/10
f 23/30/11 24/29/11 28/31/11 27/32/11
f 27/32/12 28/31/12 26/33/12 25/34/12
f 25/34/13 26/33/13 22/35/13 21/36/13
f 23/37/14 27/32/14 25/34/14 21/38/14
f 28/31/15 24/39/15 22/40/15 26/33/15
o barda.005_Cube.010
v 0.199952 -0.297704 4.467948
v 0.201209 0.046833 4.471082
v 0.203937 -0.304472 -4.006061
v 0.218497 0.034352 -4.000549
v 0.280285 -0.241407 4.403735
v 0.290593 0.060024 4.421474
v 0.310110 -0.288376 -3.996936
v 0.311274 0.022958 -3.988770
vt 1.296323 0.009426
vt 1.296323 0.437687
vt 1.150384 0.437687
vt 1.150384 0.009426
vt 1.001759 0.154715
vt 1.004445 0.009426
vt -0.004514 0.145887
vt -0.001829 0.000598
vt -0.147768 0.428859
vt -0.147768 0.000598
vt 0.144111 -0.427663
vt -0.001829 -0.427663
vt 0.144111 0.857119
vt -0.001828 0.857119
vn -0.9997 0.0232 -0.0013
vn 0.1041 0.0184 -0.9944
vn 0.9998 -0.0188 0.0031
vn 0.5669 -0.0367 0.8229
vn 0.3628 -0.9319 0.0037
vn -0.0105 0.9999 -0.0030
usemtl Material.006
s off
f 29/41/16 30/42/16 32/43/16 31/44/16
f 31/44/17 32/43/17 36/45/17 35/46/17
f 35/46/18 36/45/18 34/47/18 33/48/18
f 33/48/19 34/47/19 30/49/19 29/50/19
f 31/51/20 35/46/20 33/48/20 29/52/20
f 36/45/21 32/53/21 30/54/21 34/47/21
o Pared_Cube
v 0.096613 2.341060 4.453750
v 0.096613 -0.311672 4.453750
v 0.096613 2.341060 12.941091
v 0.096613 -0.311672 12.941091
vt 1.001416 0.005664
vt -0.001432 0.007756
vt -0.006065 1.005161
vt 0.999035 1.002987
vn 1.0000 0.0000 0.0000
usemtl Material
s off
f 40/55/22 38/56/22 37/57/22 39/58/22
o barda_Cube.001
v 0.095918 -0.298788 12.899606
v 0.097175 0.045749 12.902740
v 0.099902 -0.305556 4.425597
v 0.114462 0.033268 4.431108
v 0.176251 -0.242491 12.835393
v 0.186558 0.058940 12.853132
v 0.206075 -0.289460 4.434722
v 0.207239 0.021874 4.442887
vt 1.296323 0.009426
vt 1.296323 0.437687
vt 1.150384 0.437687
vt 1.150384 0.009426
vt 1.001759 0.154715
vt 1.004445 0.009426
vt -0.004514 0.145887
vt -0.001829 0.000598
vt -0.147768 0.428859
vt -0.147768 0.000598
vt 0.144111 -0.427663
vt -0.001829 -0.427663
vt 0.144111 0.857119
vt -0.001828 0.857119
vn -0.9997 0.0232 -0.0013
vn 0.1040 0.0184 -0.9944
vn 0.9998 -0.0188 0.0031
vn 0.5670 -0.0367 0.8229
vn 0.3628 -0.9319 0.0037
vn -0.0105 0.9999 -0.0030
usemtl Material.001
s off
f 41/59/23 42/60/23 44/61/23 43/62/23
f 43/62/24 44/61/24 48/63/24 47/64/24
f 47/64/25 48/63/25 46/65/25 45/66/25
f 45/66/26 46/65/26 42/67/26 41/68/26
f 43/69/27 47/64/27 45/66/27 41/70/27
f 48/63/28 44/71/28 42/72/28 46/65/28
o Pared.001_Cube.003
v 0.115780 2.276639 -11.497604
v 0.115780 -0.376093 -11.497604
v 0.115780 2.276639 -3.010264
v 0.115780 -0.376093 -3.010264
vt 1.001416 0.005664
vt -0.001432 0.007756
vt -0.006065 1.005161
vt 0.999035 1.002987
vn 1.0000 0.0000 0.0000
usemtl Material
s off
f 52/73/29 50/74/29 49/75/29 51/76/29
