# Blender v2.93.0 OBJ File: 'Banorte.blend'
# www.blender.org
mtllib Banorte.mtl
o Cube
v 3.070343 12.391409 -3.010886
v 3.070343 0.466913 -3.010886
v 3.070343 12.391409 3.042601
v 3.070343 0.466913 3.042601
v -3.009087 12.391409 -3.010886
v -3.009087 0.466913 -3.010886
v -3.009087 12.391409 3.042601
v -3.009087 0.466913 3.042601
vt 1.006308 0.987786
vt 1.579017 1.789847
vt -0.013551 1.789847
vt -0.005251 0.997350
vt -0.005251 0.002650
vt -1.606119 0.901012
vt -1.606120 0.012177
vt 4.764155 0.012177
vt 4.764156 0.901012
vt 3.171586 0.901012
vt 3.171586 0.012177
vt 1.579017 -0.876658
vt 1.006308 0.012213
vt -0.013552 -0.876658
vn 0.0000 1.0000 0.0000
vn 0.0000 0.0000 1.0000
vn -1.0000 0.0000 0.0000
vn 0.0000 -1.0000 0.0000
vn 1.0000 0.0000 0.0000
vn 0.0000 0.0000 -1.0000
usemtl Material
s off
f 1/1/1 5/2/1 7/3/1 3/4/1
f 4/5/2 3/4/2 7/6/2 8/7/2
f 8/8/3 7/9/3 5/10/3 6/11/3
f 6/12/4 2/13/4 4/5/4 8/14/4
f 2/13/5 1/1/5 3/4/5 4/5/5
f 6/11/6 5/10/6 1/1/6 2/13/6
